<?xml version="1.0" standalone="no"?>
<!DOCTYPE svg PUBLIC "-//W3C//DTD SVG 1.1//EN" "http://www.w3.org/Graphics/SVG/1.1/DTD/svg11.dtd">
<svg xmlns="http://www.w3.org/2000/svg" width="464" height="212" viewBox="0 0 464 212" fill="none">
<rect x="1.43551" y="59.4355" width="93.129" height="93.129" rx="23.686" fill="#FD6316"/>
<rect x="1.43551" y="59.4355" width="93.129" height="93.129" rx="23.686" stroke="url(#paint0_linear_1_165)" stroke-width="2.87103"/>
<path d="M21.5263 136.526C19.2881 136.526 17.4736 134.712 17.4736 132.473V106.806C17.4736 104.568 19.2881 102.754 21.5263 102.754H47.1933C49.4316 102.754 51.246 104.568 51.246 106.806V132.473C51.246 134.712 49.4316 136.526 47.1933 136.526H21.5263Z" fill="url(#paint1_linear_1_165)"/>
<path d="M56.135 102.402C53.5014 102.741 51.2586 100.499 51.5978 97.865L54.2537 77.2438C54.4687 75.5749 56.5065 74.88 57.6963 76.0698L77.9301 96.3036C79.12 97.4935 78.4251 99.5313 76.7561 99.7462L56.135 102.402Z" fill="url(#paint2_linear_1_165)"/>
<path d="M127.573 124.449C126.45 124.449 125.589 124.15 124.99 123.551C124.391 122.914 124.092 122.016 124.092 120.856V99.6305C124.092 98.47 124.391 97.5903 124.99 96.9914C125.589 96.3924 126.431 96.093 127.517 96.093C128.602 96.093 129.445 96.3924 130.044 96.9914C130.643 97.5903 130.942 98.47 130.942 99.6305V103.73L130.324 102.045C131.073 100.173 132.233 98.6946 133.806 97.6091C135.378 96.5235 137.25 95.9807 139.421 95.9807C141.629 95.9807 143.445 96.5048 144.867 97.5529C146.29 98.6011 147.282 100.211 147.843 102.382H147.057C147.806 100.398 149.041 98.8444 150.763 97.7214C152.485 96.5609 154.469 95.9807 156.715 95.9807C158.812 95.9807 160.534 96.3924 161.881 97.216C163.266 98.0395 164.296 99.2936 164.969 100.978C165.643 102.625 165.98 104.722 165.98 107.267V120.856C165.98 122.016 165.662 122.914 165.026 123.551C164.427 124.15 163.566 124.449 162.443 124.449C161.32 124.449 160.459 124.15 159.86 123.551C159.261 122.914 158.961 122.016 158.961 120.856V107.548C158.961 105.451 158.606 103.917 157.894 102.943C157.221 101.97 156.06 101.483 154.413 101.483C152.579 101.483 151.138 102.139 150.089 103.449C149.041 104.722 148.517 106.5 148.517 108.783V120.856C148.517 122.016 148.218 122.914 147.619 123.551C147.02 124.15 146.159 124.449 145.036 124.449C143.913 124.449 143.033 124.15 142.397 123.551C141.798 122.914 141.498 122.016 141.498 120.856V107.548C141.498 105.451 141.143 103.917 140.431 102.943C139.758 101.97 138.616 101.483 137.006 101.483C135.172 101.483 133.731 102.139 132.683 103.449C131.635 104.722 131.11 106.5 131.11 108.783V120.856C131.11 123.251 129.931 124.449 127.573 124.449ZM186.192 124.562C183.085 124.562 180.408 123.981 178.162 122.821C175.916 121.66 174.176 120.013 172.94 117.88C171.742 115.746 171.143 113.219 171.143 110.299C171.143 107.454 171.724 104.965 172.884 102.831C174.082 100.697 175.71 99.0315 177.769 97.8337C179.866 96.5983 182.243 95.9807 184.9 95.9807C186.847 95.9807 188.588 96.2989 190.122 96.9352C191.695 97.5716 193.024 98.4888 194.109 99.6866C195.232 100.885 196.074 102.344 196.636 104.066C197.235 105.751 197.534 107.66 197.534 109.794C197.534 110.468 197.291 110.992 196.804 111.366C196.355 111.703 195.7 111.871 194.839 111.871H176.815V107.829H192.593L191.695 108.671C191.695 106.949 191.433 105.508 190.909 104.347C190.422 103.187 189.692 102.307 188.719 101.708C187.783 101.072 186.604 100.754 185.181 100.754C183.609 100.754 182.261 101.128 181.138 101.877C180.053 102.588 179.21 103.617 178.612 104.965C178.05 106.275 177.769 107.847 177.769 109.682V110.075C177.769 113.144 178.48 115.446 179.903 116.981C181.363 118.478 183.497 119.227 186.304 119.227C187.277 119.227 188.363 119.115 189.561 118.89C190.796 118.628 191.957 118.198 193.042 117.599C193.828 117.15 194.521 116.962 195.12 117.037C195.719 117.075 196.187 117.281 196.524 117.655C196.898 118.029 197.123 118.497 197.197 119.059C197.272 119.583 197.16 120.126 196.861 120.687C196.599 121.249 196.131 121.735 195.457 122.147C194.147 122.971 192.631 123.588 190.909 124C189.224 124.374 187.652 124.562 186.192 124.562ZM216.064 124.562C212.957 124.562 210.28 123.981 208.034 122.821C205.788 121.66 204.047 120.013 202.812 117.88C201.614 115.746 201.015 113.219 201.015 110.299C201.015 107.454 201.596 104.965 202.756 102.831C203.954 100.697 205.582 99.0315 207.641 97.8337C209.737 96.5983 212.114 95.9807 214.772 95.9807C216.719 95.9807 218.46 96.2989 219.994 96.9352C221.567 97.5716 222.895 98.4888 223.981 99.6866C225.104 100.885 225.946 102.344 226.508 104.066C227.107 105.751 227.406 107.66 227.406 109.794C227.406 110.468 227.163 110.992 226.676 111.366C226.227 111.703 225.572 111.871 224.711 111.871H206.687V107.829H222.465L221.567 108.671C221.567 106.949 221.304 105.508 220.78 104.347C220.294 103.187 219.564 102.307 218.591 101.708C217.655 101.072 216.476 100.754 215.053 100.754C213.481 100.754 212.133 101.128 211.01 101.877C209.925 102.588 209.082 103.617 208.483 104.965C207.922 106.275 207.641 107.847 207.641 109.682V110.075C207.641 113.144 208.352 115.446 209.775 116.981C211.235 118.478 213.368 119.227 216.176 119.227C217.149 119.227 218.235 119.115 219.433 118.89C220.668 118.628 221.829 118.198 222.914 117.599C223.7 117.15 224.393 116.962 224.992 117.037C225.591 117.075 226.059 117.281 226.396 117.655C226.77 118.029 226.994 118.497 227.069 119.059C227.144 119.583 227.032 120.126 226.732 120.687C226.47 121.249 226.002 121.735 225.329 122.147C224.018 122.971 222.502 123.588 220.78 124C219.096 124.374 217.524 124.562 216.064 124.562ZM242.454 124.562C240.845 124.562 239.141 124.393 237.345 124.056C235.548 123.719 233.938 123.139 232.516 122.315C231.917 121.941 231.486 121.511 231.224 121.024C230.999 120.5 230.906 119.995 230.943 119.508C231.018 118.984 231.205 118.535 231.505 118.16C231.842 117.786 232.253 117.543 232.74 117.43C233.264 117.318 233.826 117.412 234.425 117.711C235.922 118.422 237.326 118.928 238.636 119.227C239.946 119.489 241.238 119.62 242.51 119.62C244.307 119.62 245.636 119.321 246.497 118.722C247.396 118.085 247.845 117.262 247.845 116.251C247.845 115.39 247.545 114.735 246.946 114.286C246.385 113.799 245.524 113.444 244.363 113.219L238.748 112.152C236.427 111.703 234.649 110.861 233.414 109.625C232.216 108.353 231.617 106.724 231.617 104.74C231.617 102.943 232.104 101.39 233.077 100.08C234.088 98.7695 235.473 97.7588 237.232 97.0475C238.992 96.3363 241.013 95.9807 243.297 95.9807C244.944 95.9807 246.478 96.1678 247.901 96.5422C249.361 96.8791 250.765 97.4219 252.112 98.1706C252.674 98.47 253.048 98.8631 253.235 99.3497C253.46 99.8364 253.516 100.342 253.404 100.866C253.291 101.352 253.067 101.802 252.73 102.213C252.393 102.588 251.962 102.831 251.438 102.943C250.952 103.018 250.39 102.906 249.754 102.606C248.593 102.008 247.47 101.577 246.385 101.315C245.337 101.053 244.326 100.922 243.353 100.922C241.518 100.922 240.152 101.24 239.254 101.877C238.393 102.513 237.962 103.355 237.962 104.403C237.962 105.189 238.224 105.845 238.748 106.369C239.272 106.893 240.077 107.248 241.163 107.435L246.778 108.502C249.211 108.952 251.045 109.775 252.281 110.973C253.553 112.171 254.19 113.781 254.19 115.802C254.19 118.535 253.123 120.687 250.989 122.259C248.855 123.794 246.01 124.562 242.454 124.562ZM271.563 124.562C269.13 124.562 267.089 124.15 265.442 123.326C263.833 122.503 262.635 121.305 261.849 119.733C261.063 118.123 260.67 116.139 260.67 113.781V101.82H257.75C256.851 101.82 256.159 101.596 255.672 101.147C255.185 100.66 254.942 100.005 254.942 99.1813C254.942 98.3203 255.185 97.6652 255.672 97.216C256.159 96.7668 256.851 96.5422 257.75 96.5422H260.67V91.4324C260.67 90.272 260.969 89.3923 261.568 88.7934C262.204 88.1944 263.084 87.8949 264.207 87.8949C265.33 87.8949 266.191 88.1944 266.79 88.7934C267.389 89.3923 267.688 90.272 267.688 91.4324V96.5422H273.64C274.539 96.5422 275.231 96.7668 275.718 97.216C276.205 97.6652 276.448 98.3203 276.448 99.1813C276.448 100.005 276.205 100.66 275.718 101.147C275.231 101.596 274.539 101.82 273.64 101.82H267.688V113.387C267.688 115.184 268.081 116.532 268.868 117.43C269.654 118.329 270.926 118.778 272.686 118.778C273.322 118.778 273.884 118.722 274.37 118.61C274.857 118.497 275.287 118.422 275.662 118.385C276.111 118.347 276.485 118.497 276.785 118.834C277.084 119.134 277.234 119.77 277.234 120.743C277.234 121.492 277.103 122.166 276.841 122.765C276.616 123.326 276.186 123.719 275.55 123.944C275.063 124.094 274.427 124.225 273.64 124.337C272.854 124.487 272.162 124.562 271.563 124.562ZM283.567 124.449C282.407 124.449 281.508 124.15 280.872 123.551C280.273 122.914 279.974 122.016 279.974 120.856V99.6305C279.974 98.47 280.273 97.5903 280.872 96.9914C281.471 96.3924 282.313 96.093 283.399 96.093C284.484 96.093 285.327 96.3924 285.926 96.9914C286.525 97.5903 286.824 98.47 286.824 99.6305V103.168H286.263C286.787 100.922 287.816 99.2187 289.351 98.0583C290.886 96.8978 292.926 96.2053 295.471 95.9807C296.257 95.9058 296.875 96.1117 297.324 96.5983C297.811 97.0475 298.092 97.7588 298.167 98.7321C298.241 99.6679 298.017 100.435 297.493 101.034C297.006 101.596 296.257 101.933 295.247 102.045L294.011 102.157C291.728 102.382 290.006 103.093 288.845 104.291C287.685 105.451 287.105 107.099 287.105 109.232V120.856C287.105 122.016 286.805 122.914 286.206 123.551C285.607 124.15 284.728 124.449 283.567 124.449ZM314.495 124.562C311.388 124.562 308.711 123.981 306.465 122.821C304.219 121.66 302.478 120.013 301.243 117.88C300.045 115.746 299.446 113.219 299.446 110.299C299.446 107.454 300.026 104.965 301.187 102.831C302.385 100.697 304.013 99.0315 306.072 97.8337C308.168 96.5983 310.545 95.9807 313.203 95.9807C315.15 95.9807 316.89 96.2989 318.425 96.9352C319.997 97.5716 321.326 98.4888 322.412 99.6866C323.535 100.885 324.377 102.344 324.939 104.066C325.538 105.751 325.837 107.66 325.837 109.794C325.837 110.468 325.594 110.992 325.107 111.366C324.658 111.703 324.003 111.871 323.142 111.871H305.117V107.829H320.896L319.997 108.671C319.997 106.949 319.735 105.508 319.211 104.347C318.725 103.187 317.995 102.307 317.021 101.708C316.086 101.072 314.906 100.754 313.484 100.754C311.912 100.754 310.564 101.128 309.441 101.877C308.355 102.588 307.513 103.617 306.914 104.965C306.353 106.275 306.072 107.847 306.072 109.682V110.075C306.072 113.144 306.783 115.446 308.206 116.981C309.666 118.478 311.799 119.227 314.607 119.227C315.58 119.227 316.666 119.115 317.864 118.89C319.099 118.628 320.259 118.198 321.345 117.599C322.131 117.15 322.824 116.962 323.423 117.037C324.022 117.075 324.489 117.281 324.826 117.655C325.201 118.029 325.425 118.497 325.5 119.059C325.575 119.583 325.463 120.126 325.163 120.687C324.901 121.249 324.433 121.735 323.76 122.147C322.449 122.971 320.933 123.588 319.211 124C317.527 124.374 315.955 124.562 314.495 124.562ZM339.874 124.562C337.89 124.562 336.112 124.187 334.54 123.438C333.005 122.652 331.789 121.604 330.89 120.294C330.029 118.984 329.599 117.505 329.599 115.858C329.599 113.837 330.123 112.246 331.171 111.085C332.219 109.887 333.922 109.026 336.281 108.502C338.639 107.978 341.802 107.716 345.77 107.716H348.578V111.759H345.826C343.505 111.759 341.653 111.871 340.267 112.096C338.882 112.321 337.89 112.714 337.291 113.275C336.73 113.799 336.449 114.548 336.449 115.521C336.449 116.757 336.88 117.767 337.741 118.553C338.602 119.339 339.8 119.733 341.334 119.733C342.57 119.733 343.655 119.452 344.591 118.89C345.564 118.291 346.332 117.486 346.893 116.476C347.455 115.465 347.736 114.305 347.736 112.994V106.537C347.736 104.665 347.324 103.318 346.5 102.494C345.677 101.671 344.292 101.259 342.345 101.259C341.259 101.259 340.08 101.39 338.808 101.652C337.572 101.914 336.262 102.363 334.877 103C334.166 103.336 333.529 103.43 332.968 103.28C332.444 103.131 332.032 102.831 331.733 102.382C331.433 101.895 331.283 101.371 331.283 100.81C331.283 100.248 331.433 99.7054 331.733 99.1813C332.032 98.6198 332.537 98.208 333.249 97.946C334.971 97.2347 336.618 96.7294 338.19 96.4299C339.8 96.1304 341.259 95.9807 342.57 95.9807C345.265 95.9807 347.473 96.3924 349.195 97.216C350.955 98.0395 352.265 99.2936 353.126 100.978C353.987 102.625 354.417 104.759 354.417 107.379V120.856C354.417 122.016 354.137 122.914 353.575 123.551C353.014 124.15 352.209 124.449 351.161 124.449C350.113 124.449 349.289 124.15 348.69 123.551C348.129 122.914 347.848 122.016 347.848 120.856V118.16H348.297C348.035 119.47 347.511 120.612 346.725 121.586C345.976 122.521 345.022 123.251 343.861 123.775C342.701 124.299 341.372 124.562 339.874 124.562ZM364.574 124.449C363.451 124.449 362.59 124.15 361.991 123.551C361.392 122.914 361.092 122.016 361.092 120.856V99.6305C361.092 98.47 361.392 97.5903 361.991 96.9914C362.59 96.3924 363.432 96.093 364.518 96.093C365.603 96.093 366.445 96.3924 367.044 96.9914C367.643 97.5903 367.943 98.47 367.943 99.6305V103.73L367.325 102.045C368.074 100.173 369.234 98.6946 370.807 97.6091C372.379 96.5235 374.25 95.9807 376.422 95.9807C378.63 95.9807 380.446 96.5048 381.868 97.5529C383.291 98.6011 384.283 100.211 384.844 102.382H384.058C384.807 100.398 386.042 98.8444 387.764 97.7214C389.486 96.5609 391.47 95.9807 393.716 95.9807C395.812 95.9807 397.534 96.3924 398.882 97.216C400.267 98.0395 401.297 99.2936 401.97 100.978C402.644 102.625 402.981 104.722 402.981 107.267V120.856C402.981 122.016 402.663 122.914 402.026 123.551C401.428 124.15 400.567 124.449 399.444 124.449C398.321 124.449 397.46 124.15 396.861 123.551C396.262 122.914 395.962 122.016 395.962 120.856V107.548C395.962 105.451 395.607 103.917 394.895 102.943C394.221 101.97 393.061 101.483 391.414 101.483C389.58 101.483 388.138 102.139 387.09 103.449C386.042 104.722 385.518 106.5 385.518 108.783V120.856C385.518 122.016 385.219 122.914 384.62 123.551C384.021 124.15 383.16 124.449 382.037 124.449C380.914 124.449 380.034 124.15 379.398 123.551C378.799 122.914 378.499 122.016 378.499 120.856V107.548C378.499 105.451 378.144 103.917 377.432 102.943C376.759 101.97 375.617 101.483 374.007 101.483C372.173 101.483 370.732 102.139 369.684 103.449C368.635 104.722 368.111 106.5 368.111 108.783V120.856C368.111 123.251 366.932 124.449 364.574 124.449ZM413.029 124.281C411.757 124.281 410.727 123.888 409.941 123.102C409.192 122.315 408.818 121.305 408.818 120.069C408.818 118.872 409.192 117.898 409.941 117.15C410.727 116.363 411.757 115.97 413.029 115.97C414.34 115.97 415.35 116.363 416.062 117.15C416.81 117.898 417.185 118.872 417.185 120.069C417.185 121.305 416.81 122.315 416.062 123.102C415.35 123.888 414.34 124.281 413.029 124.281ZM431.903 124.562C429.919 124.562 428.141 124.187 426.568 123.438C425.034 122.652 423.817 121.604 422.919 120.294C422.058 118.984 421.627 117.505 421.627 115.858C421.627 113.837 422.151 112.246 423.199 111.085C424.247 109.887 425.951 109.026 428.309 108.502C430.667 107.978 433.831 107.716 437.799 107.716H440.606V111.759H437.855C435.534 111.759 433.681 111.871 432.296 112.096C430.911 112.321 429.919 112.714 429.32 113.275C428.758 113.799 428.477 114.548 428.477 115.521C428.477 116.757 428.908 117.767 429.769 118.553C430.63 119.339 431.828 119.733 433.363 119.733C434.598 119.733 435.684 119.452 436.619 118.89C437.593 118.291 438.36 117.486 438.922 116.476C439.483 115.465 439.764 114.305 439.764 112.994V106.537C439.764 104.665 439.352 103.318 438.529 102.494C437.705 101.671 436.32 101.259 434.373 101.259C433.288 101.259 432.109 101.39 430.836 101.652C429.601 101.914 428.29 102.363 426.905 103C426.194 103.336 425.558 103.43 424.996 103.28C424.472 103.131 424.06 102.831 423.761 102.382C423.461 101.895 423.312 101.371 423.312 100.81C423.312 100.248 423.461 99.7054 423.761 99.1813C424.06 98.6198 424.566 98.208 425.277 97.946C426.999 97.2347 428.646 96.7294 430.218 96.4299C431.828 96.1304 433.288 95.9807 434.598 95.9807C437.293 95.9807 439.502 96.3924 441.224 97.216C442.983 98.0395 444.293 99.2936 445.154 100.978C446.015 102.625 446.446 104.759 446.446 107.379V120.856C446.446 122.016 446.165 122.914 445.604 123.551C445.042 124.15 444.237 124.449 443.189 124.449C442.141 124.449 441.317 124.15 440.718 123.551C440.157 122.914 439.876 122.016 439.876 120.856V118.16H440.325C440.063 119.47 439.539 120.612 438.753 121.586C438.004 122.521 437.05 123.251 435.889 123.775C434.729 124.299 433.4 124.562 431.903 124.562ZM456.49 124.393C455.367 124.393 454.506 124.056 453.907 123.382C453.308 122.709 453.008 121.773 453.008 120.575V99.9674C453.008 98.7321 453.308 97.7962 453.907 97.1598C454.506 96.486 455.367 96.1491 456.49 96.1491C457.613 96.1491 458.474 96.486 459.073 97.1598C459.709 97.7962 460.027 98.7321 460.027 99.9674V120.575C460.027 121.773 459.728 122.709 459.129 123.382C458.53 124.056 457.65 124.393 456.49 124.393ZM456.49 90.9271C455.18 90.9271 454.15 90.6089 453.402 89.9725C452.69 89.2987 452.335 88.3816 452.335 87.2211C452.335 86.0232 452.69 85.1061 453.402 84.4697C454.15 83.8334 455.18 83.5152 456.49 83.5152C457.837 83.5152 458.867 83.8334 459.578 84.4697C460.289 85.1061 460.645 86.0232 460.645 87.2211C460.645 88.3816 460.289 89.2987 459.578 89.9725C458.867 90.6089 457.837 90.9271 456.49 90.9271Z" fill="#111111"/>
<defs>
<linearGradient id="paint0_linear_1_165" x1="0.433973" y1="57.9062" x2="95.6598" y2="154.094" gradientUnits="userSpaceOnUse">
<stop stop-color="white" stop-opacity="0.5"/>
<stop offset="1" stop-color="white" stop-opacity="0"/>
</linearGradient>
<linearGradient id="paint1_linear_1_165" x1="47.9998" y1="75.4739" x2="47.9998" y2="136.526" gradientUnits="userSpaceOnUse">
<stop stop-color="white"/>
<stop offset="1" stop-color="#E1E1E1"/>
</linearGradient>
<linearGradient id="paint2_linear_1_165" x1="47.9998" y1="75.4739" x2="47.9998" y2="136.526" gradientUnits="userSpaceOnUse">
<stop stop-color="white"/>
<stop offset="1" stop-color="#E1E1E1"/>
</linearGradient>
</defs>
</svg>